# xmcd
#
# Track frame offsets: 
#        150
#        16493
#        29628
#        44875
#        62563
#        77815
#        95005
#        112240
#        133355
#        151288
#        177060
#        198255
#
# Disc length: 2806 seconds
#
# Revision: 3
# Processed by: cddbd v1.5.2PL0 Copyright (c) Steve Scherf et al.
# Submitted via: ExactAudioCopy v0.95b2
#
DISCID=ad0af40c
DTITLE=Johnnie Taylor - Super Taylor
DYEAR=1973
DGENRE=R&B
TTITLE0=It's September
TTITLE1=Darline I Love You
TTITLE2=Try Me Tonight
TTITLE3=Free
TTITLE4=I've Been Born Again
TTITLE5=At Night Time (My Pillow Tells A Tale On Me)
TTITLE6=It Don't Pay To Get Up In The Morning
TTITLE7=Just One Moment
TTITLE8=Stop Teasin' Me
TTITLE9=Don't You Fool With My Soul (parts 1 and 2)
TTITLE10=Love Depression
TTITLE11=Poor Make Believer
EXTD=
EXTT0=
EXTT1=
EXTT2=
EXTT3=
EXTT4=
EXTT5=
EXTT6=
EXTT7=
EXTT8=
EXTT9=
EXTT10=
EXTT11=
PLAYORDER=
